<svg width="28" height="36" viewBox="0 0 28 36" fill="none" xmlns="http://www.w3.org/2000/svg">
<path d="M24.8182 22.8C24.7011 22.3158 24.0787 20.8794 22.6036 20.7774C21.2189 20.6814 20.2071 20.6166 19.4613 20.5752C19.0748 20.1652 18.6661 19.7743 18.2369 19.404C20.4044 18.2574 22.4566 16.407 22.9377 14.1432C23.9406 13.974 24.9773 13.3554 24.9773 11.52C24.9773 9.81419 24.2563 9.32459 23.6613 9.20939C23.5817 2.79778 21.8139 0.0683802 14.0834 0.00118021C6.29173 -0.0666198 4.19809 2.78398 4.09436 9.27899C3.563 9.47879 3.02273 10.0428 3.02273 11.52C3.02273 13.3554 4.05745 13.974 5.061 14.1432C5.54082 16.407 7.59309 18.2574 9.76182 19.4052C9.33322 19.7749 8.92519 20.1652 8.53936 20.5746C7.79355 20.6166 6.78236 20.6802 5.39764 20.7762C3.99573 20.8734 3.32564 22.2012 3.18182 22.8L0 36H3.81818L5.72727 27.6L6.36364 36H21.6364L22.2727 27.6L24.1818 36H28L24.8182 22.8ZM5.94618 13.6806L5.89655 13.3164L5.50773 13.29C4.44882 13.2174 3.97664 12.672 3.97664 11.5206C3.97664 10.5678 4.20636 10.083 4.65882 10.0782C4.73009 10.4256 4.81282 10.6764 4.91336 10.8552C5.18382 11.3358 5.69291 11.5962 5.75018 11.6244L6.57364 12.0306L6.44446 11.163C6.37284 10.5916 6.34943 10.0158 6.37445 9.44099C6.60736 6.20878 6.84218 5.92018 7.455 5.92018C7.78782 5.92018 8.25936 6.00778 8.85436 6.11818C10.0348 6.33778 11.6518 6.63778 13.9981 6.63778C16.345 6.63778 17.962 6.33778 19.1425 6.11878C19.7381 6.00778 20.209 5.92078 20.5418 5.92078C21.1546 5.92078 21.3895 6.20938 21.6217 9.43559C21.6605 10.4304 21.5524 11.1546 21.5524 11.1624L21.4194 12.0324L22.246 11.6244C22.3033 11.5962 22.8117 11.3358 23.0835 10.8558C23.1827 10.6794 23.2648 10.4286 23.3367 10.0782C23.7905 10.0824 24.0215 10.5672 24.0215 11.5206C24.0215 12.672 23.548 13.2174 22.4891 13.29L22.1003 13.3164L22.0506 13.6806C21.5371 17.4078 16.1382 19.7718 13.9975 19.7718C11.8567 19.7718 6.45909 17.4078 5.94618 13.6806ZM13.9987 20.6718C14.6675 20.6718 15.4942 20.5104 16.3717 20.2146L16.2298 21.2856L16.1974 21.5232C15.7099 21.747 15.274 21.9666 15.1047 22.053C15.0778 21.998 15.0412 21.9477 14.9965 21.9042C14.6434 21.5808 13.3554 21.5808 13.0041 21.9042C12.9592 21.9482 12.9221 21.9986 12.894 22.0536C12.5338 21.8695 12.1695 21.6927 11.8014 21.5232L11.7695 21.2856L11.6276 20.2152C12.5045 20.511 13.3299 20.6718 13.9987 20.6718ZM13.3592 34.6722L7.01464 27.1818L8.48845 25.0734L7.38945 24.0024C8.01691 21.9654 10.6222 19.887 10.6222 19.887L10.7825 21.0972C10.2525 20.9046 9.85409 20.8284 9.93364 21.0792C10.0673 21.5016 10.1233 22.143 10.1144 22.7448L9.65555 23.6184L13.4941 34.0572L13.5087 34.0974L13.9981 35.427L13.3592 34.6722ZM10.8837 24.2076C11.6397 24.0192 12.6013 23.6706 12.8857 23.5662C12.9149 23.6275 12.9551 23.6836 13.0047 23.7318C13.3566 24.054 14.6446 24.054 14.9972 23.7318C15.0463 23.6835 15.0863 23.6277 15.1155 23.5668C15.4 23.6724 16.3609 24.0192 17.1169 24.2076L14 32.6832L10.8837 24.2076ZM14.0013 35.4294L18.3425 23.6172L17.885 22.746C17.8761 22.1436 17.9321 21.501 18.0664 21.0786C18.1459 20.8272 17.7469 20.904 17.2162 21.0972L17.3765 19.8864C17.3765 19.8864 19.9818 21.9654 20.6105 24.0018L19.5103 25.0728L20.9854 27.1812L14.0013 35.4294Z" fill="black"/>
</svg>
