<svg width="33" height="23" viewBox="0 0 33 23" fill="none" xmlns="http://www.w3.org/2000/svg">
<path d="M25.2659 12.8767C24.7765 9.70366 23.2295 -1.52588e-05 20.2279 -1.52588e-05C19.506 -1.52588e-05 18.8619 0.327845 18.3199 0.774023C17.797 1.20142 17.1577 1.43291 16.5002 1.43291C15.8427 1.43291 15.2033 1.20142 14.6804 0.774023C14.1385 0.331715 13.4944 -1.52588e-05 12.7725 -1.52588e-05C9.77137 -1.52588e-05 8.22439 9.70145 7.734 12.8756C9.73476 13.5716 12.5667 14.1538 16.4997 14.1538C20.4326 14.1538 23.2666 13.5727 25.2659 12.8767ZM32.6346 10.821C32.4808 10.7103 32.2967 10.6582 32.112 10.6732C31.9272 10.6883 31.7526 10.7696 31.6162 10.904C31.5646 10.9537 26.3941 15.9231 16.4992 15.9231C6.65937 15.9231 1.4306 10.9504 1.37801 10.9007C1.24122 10.7682 1.06702 10.6887 0.883184 10.6748C0.699344 10.6609 0.51645 10.7133 0.363663 10.8238C0.210877 10.9343 0.0969976 11.0965 0.0401828 11.2845C-0.016632 11.4725 -0.0131103 11.6754 0.0501863 11.861C0.0878294 11.9727 4.03725 23 16.4997 23C28.9621 23 32.9115 11.9727 32.9492 11.861C33.0131 11.675 33.0168 11.4714 32.9599 11.2828C32.9029 11.0942 32.7886 10.9316 32.6351 10.821H32.6346Z" fill="black"/>
</svg>
