<svg width="19" height="27" viewBox="0 0 19 27" fill="none" xmlns="http://www.w3.org/2000/svg">
<path d="M9.1875 0C8.89198 3.048e-05 8.62768 0.1554 8.52494 0.389491L0.218093 13.6952C0.0762305 13.8851 0.000640195 14.105 0 14.3295C0 14.989 0.632828 15.5237 1.41346 15.5237H8.48077V25.6738C8.48077 26.0035 8.79718 26.2708 9.1875 26.2708C9.45269 26.2711 9.69573 26.1459 9.81693 25.9467L18.1845 12.5407L18.1818 12.5384C18.3072 12.3571 18.3738 12.1512 18.375 11.9413C18.375 11.2818 17.7422 10.7472 16.9615 10.7472H9.89423V0.597065C9.89423 0.267315 9.57782 0 9.1875 0Z" fill="black"/>
</svg>
