<svg width="27" height="27" viewBox="0 0 27 27" fill="none" xmlns="http://www.w3.org/2000/svg">
<path d="M24.3 0H2.7C1.215 0 0 1.13906 0 2.53125V24.4688C0 25.8609 1.215 27 2.7 27H24.3C25.785 27 27 25.8609 27 24.4688V2.53125C27 1.13906 25.785 0 24.3 0ZM23.4 23.625H3.6V3.375H23.4V23.625ZM7.2 15.1875H19.8V16.875H7.2V15.1875ZM7.2 18.5625H19.8V20.25H7.2V18.5625ZM9 7.59375C9.00012 7.26123 9.0701 6.93199 9.20594 6.62482C9.34178 6.31766 9.54083 6.03858 9.79171 5.80354C10.0426 5.56849 10.3404 5.38207 10.6681 5.25492C10.9959 5.12777 11.3471 5.06239 11.7018 5.0625C12.0565 5.06261 12.4077 5.12822 12.7353 5.25557C13.063 5.38292 13.3606 5.56952 13.6114 5.80473C13.8621 6.03993 14.0609 6.31913 14.1965 6.62638C14.3322 6.93363 14.4019 7.26292 14.4018 7.59544C14.4016 8.26699 14.1168 8.91095 13.6101 9.38565C13.1034 9.86035 12.4163 10.1269 11.7 10.1267C10.9837 10.1265 10.2968 9.85948 9.79044 9.38446C9.28409 8.90944 8.99976 8.2653 9 7.59375ZM13.5 10.125H9.9C8.415 10.125 7.2 10.8844 7.2 11.8125V13.5H16.2V11.8125C16.2 10.8844 14.985 10.125 13.5 10.125Z" fill="#ffffff"/>
</svg>
